<svg t="1713941054798" class="icon" viewBox="0 0 1024 1024" version="1.1" xmlns="http://www.w3.org/2000/svg" p-id="10892" width="200" height="200"><path d="M920.426 772.73l-3.624-1.062c-52.936-14.186-70.872-27.874-94.434-36.81-83.562-31.874-105.31-54.81-110.874-65.686-0.218-0.376-0.376-0.812-0.562-1.188l-0.688-97.124L512 568.612l-198.262 2.25-0.688 97.124c-0.172 0.376-0.328 0.812-0.532 1.188-5.562 10.876-27.31 33.812-110.902 65.686-23.578 8.938-41.5 22.624-94.436 36.81l-3.624 1.062c-48.186 15.938-80.608 60.624-80.608 111.06v140.186H1001.05v-140.186c0-50.436-32.436-95.124-80.624-111.062z" fill="#656D78" p-id="10893" data-spm-anchor-id="a313x.search_index.0.i5.7b733a810u0gnA" class=""></path><path d="M764.274 709.484a309.08 309.08 0 0 1-17.282-9.5h-0.032c-1.688-1-3.282-2-4.812-2.938l-0.032-0.062c-0.718-0.438-1.438-0.876-2.124-1.376-0.062 0-0.124-0.062-0.188-0.062-1.406-0.938-2.75-1.812-4.032-2.688a1.232 1.232 0 0 1-0.218-0.188 78.48 78.48 0 0 1-1.624-1.124c-0.094-0.062-0.188-0.124-0.312-0.188a123.152 123.152 0 0 0-3.312-2.438c-0.124-0.124-0.25-0.188-0.376-0.312a23.806 23.806 0 0 0-1.188-0.876c-0.124-0.124-0.248-0.188-0.374-0.312-0.5-0.376-0.938-0.75-1.438-1.124-0.438 0.438-0.688 0.188-0.75-0.624-8.5-7-12.688-12.562-14.688-16.5-0.218-0.376-0.376-0.812-0.562-1.188l-0.688-97.124L512 568.612l-198.262 2.25-0.688 97.124c-0.172 0.376-0.328 0.812-0.532 1.188-3.672 7.188-14.406 19.562-45.31 36.376 8.86 10.624 27.156 30.124 55.514 49.436 37.36 25.374 100.514 55.686 189.278 55.686 88.434 0 154.684-30.062 194.65-55.31 27.654-17.442 46.968-35.002 57.624-45.878z" fill="#DBAFA5" p-id="10894" data-spm-anchor-id="a313x.search_index.0.i6.7b733a810u0gnA" class=""></path><path d="M787.118 382.992c0 178.746-170.434 343.242-275.118 343.242-104.702 0-275.104-164.496-275.104-343.242S360.066 86.31 512 86.31s275.118 117.936 275.118 296.682z" fill="#EAC6BB" p-id="10895" data-spm-anchor-id="a313x.search_index.0.i4.7b733a810u0gnA" class=""></path><path d="M653.996 101.748S648.652 54.188 705.62 20c24.124-14.5-361.506-83.248-458.286 160.434-36.374 91.56-9.484 226.244-9.484 226.244l83.81-150.246s91.342 21.312 190.34 21.312c98.996 0 193.65-21.312 193.65-21.312l81.466 126.998s31.282-121.934-3.782-202.746-129.338-78.936-129.338-78.936z" fill="#2c2c2c" p-id="10896" data-spm-anchor-id="a313x.search_index.0.i2.7b733a810u0gnA" class=""></path><path d="M764.274 709.484c-17.344-8.876-29.218-16.624-37.342-23.188-9.812 9.188-24.75 21.562-44.53 33.938C631.496 751.92 574.184 767.98 512 767.98c-61.794 0-116.858-15.874-163.668-47.184-22.532-15.124-37.64-30.376-45.64-39.438-6.938 6.562-17.966 14.688-35.482 24.188 8.86 10.624 27.156 30.124 55.514 49.436 37.36 25.374 100.514 55.686 189.278 55.686 88.434 0 154.684-30.062 194.65-55.31 27.652-17.438 46.966-34.998 57.622-45.874z" fill="#434A54" p-id="10897"></path><path d="M240.24 426.678h543.502c2.124-14.124 3.312-28.312 3.344-42.686H236.912c0.046 14.374 1.204 28.56 3.328 42.686z" fill="#656D78" p-id="10898"></path><path d="M503 405.302c0 41.25-5.218 74.686-106.67 74.686-101.45 0-106.668-33.436-106.668-74.686 0-41.186 15.686-74.624 106.668-74.624 90.998 0.002 106.67 33.44 106.67 74.624zM738.586 405.302c0 41.25-5.218 74.686-106.652 74.686-101.464 0-106.684-33.436-106.684-74.686 0-41.186 15.67-74.624 106.684-74.624 90.966 0.002 106.652 33.44 106.652 74.624z" fill="#2c2c2c" p-id="10899" data-spm-anchor-id="a313x.search_index.0.i3.7b733a810u0gnA" class="selected"></path><path d="M491.296 597.33h42.654v426.646h-42.654z" fill="#AAB2BC" p-id="10900"></path><path d="M555.936 575.986h-85.358c-35.28 0-63.998 28.718-63.998 63.998v170.652c0 35.312 28.718 64.032 63.998 64.032h85.358c35.248 0 63.998-28.718 63.998-64.032v-170.652c0-35.278-28.75-63.998-63.998-63.998z" fill="#CCD1D9" p-id="10901"></path><path d="M534.576 768.886v-21.342h85.358v-42.654h-85.358v-21.344h85.358v-42.656H406.58v42.656h85.342v21.344H406.58v42.654h85.342v21.342H406.58v41.75c0 0.312 0.016 0.624 0.032 0.906h213.26c0.032-0.282 0.062-0.594 0.062-0.906v-41.75h-85.358z" fill="#AAB2BC" p-id="10902" data-spm-anchor-id="a313x.search_index.0.i7.7b733a810u0gnA" class="selected"></path></svg>